<svg xmlns="http://www.w3.org/2000/svg" xmlns:xlink="http://www.w3.org/1999/xlink" width="794" zoomAndPan="magnify" viewBox="0 0 595.5 842.249979" height="1123" preserveAspectRatio="xMidYMid meet" version="1.0"><defs><g/><clipPath id="fd1070f857"><path d="M 97 0 L 499 0 L 499 841.5 L 97 841.5 Z M 97 0 " clip-rule="nonzero"/></clipPath><clipPath id="eed18fb00e"><path d="M 0.609375 0 L 401.050781 0 L 401.050781 841.5 L 0.609375 841.5 Z M 0.609375 0 " clip-rule="nonzero"/></clipPath><clipPath id="507bffe527"><rect x="0" width="402" y="0" height="842"/></clipPath><clipPath id="ef2059a81a"><path d="M 158.539062 499.40625 L 242.496094 499.40625 L 242.496094 583.363281 L 158.539062 583.363281 Z M 158.539062 499.40625 " clip-rule="nonzero"/></clipPath><clipPath id="c7717fc61c"><rect x="0" width="402" y="0" height="842"/></clipPath></defs><g clip-path="url(#fd1070f857)"><g transform="matrix(1, 0, 0, 1, 97, 0)"><g clip-path="url(#c7717fc61c)"><g clip-path="url(#eed18fb00e)"><g><g clip-path="url(#507bffe527)"><g fill="#000000" fill-opacity="1"><g transform="translate(0.796572, 644.474155)"><g><path d="M 106.6875 -219 L 185.3125 -430.28125 C 179.226562 -443.851562 173.613281 -452.976562 168.46875 -457.65625 C 163.320312 -462.34375 160.046875 -464.921875 158.640625 -465.390625 L 201.453125 -465.390625 L 355.1875 -51.234375 C 363.132812 -29.710938 370.265625 -15.910156 376.578125 -9.828125 C 382.898438 -3.742188 386.765625 -0.46875 388.171875 0 L 334.828125 0 C 338.097656 -0.9375 339.5 -5.03125 339.03125 -12.28125 C 338.5625 -19.53125 335.519531 -31.113281 329.90625 -47.03125 L 320.078125 -71.59375 C 309.785156 -49.601562 294.34375 -31.9375 273.75 -18.59375 C 253.164062 -5.257812 231.175781 1.40625 207.78125 1.40625 C 185.78125 1.40625 165.421875 -4.207031 146.703125 -15.4375 C 127.984375 -26.675781 113.125 -41.648438 102.125 -60.359375 C 91.132812 -79.078125 85.640625 -99.4375 85.640625 -121.4375 C 85.640625 -149.507812 92.65625 -182.03125 106.6875 -219 Z M 207.78125 -0.703125 C 233.039062 -0.703125 255.613281 -7.601562 275.5 -21.40625 C 295.394531 -35.207031 310.019531 -52.640625 319.375 -73.703125 L 230.9375 -310.953125 L 143.890625 -310.953125 L 109.5 -216.90625 C 95.457031 -179.9375 88.4375 -148.113281 88.4375 -121.4375 C 88.4375 -99.4375 93.816406 -79.3125 104.578125 -61.0625 C 115.347656 -42.8125 129.859375 -28.1875 148.109375 -17.1875 C 166.359375 -6.195312 186.25 -0.703125 207.78125 -0.703125 Z M 191.625 -415.546875 C 191.15625 -417.890625 190.453125 -419.878906 189.515625 -421.515625 C 188.585938 -423.148438 187.65625 -424.90625 186.71875 -426.78125 L 145.296875 -313.765625 L 229.53125 -313.765625 Z M 44.21875 -51.234375 L 46.328125 -47.734375 C 40.242188 -31.816406 37.082031 -20.113281 36.84375 -12.625 C 36.613281 -5.144531 37.671875 -0.9375 40.015625 0 L 10.53125 0 C 12.40625 -0.46875 16.613281 -3.976562 23.15625 -10.53125 C 29.707031 -17.082031 36.726562 -30.648438 44.21875 -51.234375 Z M 44.21875 -51.234375 "/></g></g></g></g></g></g><g clip-path="url(#ef2059a81a)"><path fill="#231f20" d="M 200.519531 525.066406 C 200.765625 526.046875 201.078125 527.007812 201.453125 527.945312 C 201.828125 528.886719 202.265625 529.796875 202.765625 530.675781 C 203.261719 531.554688 203.820312 532.398438 204.429688 533.203125 C 205.042969 534.007812 205.707031 534.765625 206.421875 535.484375 C 207.136719 536.199219 207.898438 536.863281 208.703125 537.472656 C 209.507812 538.085938 210.351562 538.640625 211.230469 539.140625 C 212.109375 539.640625 213.019531 540.078125 213.957031 540.453125 C 214.898438 540.828125 215.859375 541.136719 216.839844 541.382812 C 215.859375 541.628906 214.898438 541.941406 213.957031 542.316406 C 213.019531 542.691406 212.109375 543.128906 211.230469 543.625 C 210.351562 544.125 209.507812 544.679688 208.703125 545.292969 C 207.898438 545.90625 207.136719 546.570312 206.421875 547.285156 C 205.707031 548 205.042969 548.761719 204.429688 549.566406 C 203.820312 550.371094 203.261719 551.210938 202.765625 552.09375 C 202.265625 552.972656 201.828125 553.882812 201.453125 554.820312 C 201.078125 555.761719 200.765625 556.71875 200.519531 557.703125 C 200.277344 556.71875 199.964844 555.761719 199.589844 554.820312 C 199.214844 553.882812 198.777344 552.972656 198.277344 552.09375 C 197.78125 551.210938 197.222656 550.371094 196.613281 549.566406 C 196 548.761719 195.335938 548 194.621094 547.285156 C 193.90625 546.570312 193.144531 545.90625 192.339844 545.292969 C 191.535156 544.679688 190.691406 544.125 189.8125 543.625 C 188.933594 543.128906 188.023438 542.691406 187.082031 542.316406 C 186.144531 541.941406 185.183594 541.628906 184.203125 541.382812 C 185.183594 541.136719 186.144531 540.828125 187.082031 540.453125 C 188.023438 540.078125 188.933594 539.640625 189.8125 539.140625 C 190.691406 538.640625 191.535156 538.085938 192.339844 537.472656 C 193.144531 536.863281 193.90625 536.199219 194.621094 535.484375 C 195.335938 534.765625 196 534.007812 196.613281 533.203125 C 197.222656 532.398438 197.78125 531.554688 198.277344 530.675781 C 198.777344 529.796875 199.214844 528.886719 199.589844 527.945312 C 199.964844 527.007812 200.277344 526.046875 200.519531 525.066406 M 200.519531 499.40625 C 200.519531 508.863281 200.121094 516.191406 199.496094 521.867188 C 199.371094 523.042969 199.144531 524.195312 198.820312 525.332031 C 198.496094 526.464844 198.078125 527.566406 197.566406 528.628906 C 197.058594 529.695312 196.460938 530.707031 195.78125 531.671875 C 195.097656 532.636719 194.339844 533.535156 193.503906 534.367188 C 192.667969 535.203125 191.769531 535.960938 190.808594 536.644531 C 189.84375 537.324219 188.832031 537.921875 187.765625 538.433594 C 186.703125 538.941406 185.601562 539.359375 184.46875 539.683594 C 183.332031 540.007812 182.179688 540.234375 181.003906 540.363281 C 175.328125 540.984375 168 541.386719 158.539062 541.386719 C 168 541.386719 175.328125 541.789062 181.003906 542.410156 C 182.179688 542.539062 183.332031 542.765625 184.46875 543.085938 C 185.601562 543.410156 186.703125 543.828125 187.765625 544.339844 C 188.832031 544.847656 189.84375 545.445312 190.808594 546.128906 C 191.769531 546.808594 192.667969 547.566406 193.503906 548.402344 C 194.339844 549.238281 195.097656 550.136719 195.78125 551.097656 C 196.460938 552.0625 197.058594 553.078125 197.566406 554.140625 C 198.078125 555.207031 198.496094 556.304688 198.820312 557.441406 C 199.144531 558.574219 199.371094 559.730469 199.496094 560.902344 C 200.121094 566.578125 200.519531 573.90625 200.519531 583.367188 C 200.519531 573.90625 200.921875 566.578125 201.546875 560.902344 C 201.671875 559.730469 201.898438 558.574219 202.222656 557.441406 C 202.546875 556.304688 202.964844 555.207031 203.472656 554.140625 C 203.984375 553.078125 204.582031 552.0625 205.261719 551.097656 C 205.945312 550.136719 206.703125 549.238281 207.539062 548.402344 C 208.371094 547.566406 209.273438 546.808594 210.234375 546.128906 C 211.199219 545.445312 212.210938 544.847656 213.277344 544.339844 C 214.339844 543.828125 215.441406 543.410156 216.574219 543.085938 C 217.710938 542.765625 218.863281 542.539062 220.039062 542.410156 C 225.714844 541.789062 233.042969 541.386719 242.5 541.386719 C 233.042969 541.386719 225.714844 540.984375 220.039062 540.363281 C 218.863281 540.234375 217.710938 540.007812 216.574219 539.683594 C 215.441406 539.359375 214.339844 538.941406 213.277344 538.433594 C 212.210938 537.921875 211.199219 537.324219 210.234375 536.644531 C 209.273438 535.960938 208.371094 535.203125 207.539062 534.367188 C 206.703125 533.535156 205.945312 532.636719 205.261719 531.671875 C 204.582031 530.707031 203.984375 529.695312 203.472656 528.628906 C 202.964844 527.566406 202.546875 526.464844 202.222656 525.332031 C 201.898438 524.195312 201.671875 523.042969 201.546875 521.867188 C 200.921875 516.191406 200.519531 508.863281 200.519531 499.40625 Z M 200.519531 499.40625 " fill-opacity="1" fill-rule="nonzero"/></g></g></g></g></svg>