<svg xmlns="http://www.w3.org/2000/svg" xmlns:xlink="http://www.w3.org/1999/xlink" width="794" zoomAndPan="magnify" viewBox="0 0 595.5 842.249979" height="1123" preserveAspectRatio="xMidYMid meet" version="1.0"><defs><g/><clipPath id="4abc02eb51"><path d="M 97 0 L 499 0 L 499 841.5 L 97 841.5 Z M 97 0 " clip-rule="nonzero"/></clipPath><clipPath id="80e0b3ad25"><path d="M 0.609375 0 L 401.050781 0 L 401.050781 841.5 L 0.609375 841.5 Z M 0.609375 0 " clip-rule="nonzero"/></clipPath><clipPath id="26aa9f25d2"><rect x="0" width="402" y="0" height="842"/></clipPath><clipPath id="cfafd9359f"><path d="M 158.539062 499.40625 L 242.496094 499.40625 L 242.496094 583.363281 L 158.539062 583.363281 Z M 158.539062 499.40625 " clip-rule="nonzero"/></clipPath><clipPath id="63c12b279c"><rect x="0" width="402" y="0" height="842"/></clipPath></defs><g clip-path="url(#4abc02eb51)"><g transform="matrix(1, 0, 0, 1, 97, 0)"><g clip-path="url(#63c12b279c)"><g clip-path="url(#80e0b3ad25)"><g><g clip-path="url(#26aa9f25d2)"><g fill="#3f2417" fill-opacity="1"><g transform="translate(0.796572, 644.474155)"><g><path d="M 106.6875 -219 L 185.3125 -430.28125 C 179.226562 -443.851562 173.613281 -452.976562 168.46875 -457.65625 C 163.320312 -462.34375 160.046875 -464.921875 158.640625 -465.390625 L 201.453125 -465.390625 L 355.1875 -51.234375 C 363.132812 -29.710938 370.265625 -15.910156 376.578125 -9.828125 C 382.898438 -3.742188 386.765625 -0.46875 388.171875 0 L 334.828125 0 C 338.097656 -0.9375 339.5 -5.03125 339.03125 -12.28125 C 338.5625 -19.53125 335.519531 -31.113281 329.90625 -47.03125 L 320.078125 -71.59375 C 309.785156 -49.601562 294.34375 -31.9375 273.75 -18.59375 C 253.164062 -5.257812 231.175781 1.40625 207.78125 1.40625 C 185.78125 1.40625 165.421875 -4.207031 146.703125 -15.4375 C 127.984375 -26.675781 113.125 -41.648438 102.125 -60.359375 C 91.132812 -79.078125 85.640625 -99.4375 85.640625 -121.4375 C 85.640625 -149.507812 92.65625 -182.03125 106.6875 -219 Z M 207.78125 -0.703125 C 233.039062 -0.703125 255.613281 -7.601562 275.5 -21.40625 C 295.394531 -35.207031 310.019531 -52.640625 319.375 -73.703125 L 230.9375 -310.953125 L 143.890625 -310.953125 L 109.5 -216.90625 C 95.457031 -179.9375 88.4375 -148.113281 88.4375 -121.4375 C 88.4375 -99.4375 93.816406 -79.3125 104.578125 -61.0625 C 115.347656 -42.8125 129.859375 -28.1875 148.109375 -17.1875 C 166.359375 -6.195312 186.25 -0.703125 207.78125 -0.703125 Z M 191.625 -415.546875 C 191.15625 -417.890625 190.453125 -419.878906 189.515625 -421.515625 C 188.585938 -423.148438 187.65625 -424.90625 186.71875 -426.78125 L 145.296875 -313.765625 L 229.53125 -313.765625 Z M 44.21875 -51.234375 L 46.328125 -47.734375 C 40.242188 -31.816406 37.082031 -20.113281 36.84375 -12.625 C 36.613281 -5.144531 37.671875 -0.9375 40.015625 0 L 10.53125 0 C 12.40625 -0.46875 16.613281 -3.976562 23.15625 -10.53125 C 29.707031 -17.082031 36.726562 -30.648438 44.21875 -51.234375 Z M 44.21875 -51.234375 "/></g></g></g></g></g></g><g clip-path="url(#cfafd9359f)"><path fill="#3f2417" d="M 200.496094 525.050781 C 200.742188 526.03125 201.054688 526.992188 201.429688 527.929688 C 201.804688 528.867188 202.242188 529.777344 202.738281 530.65625 C 203.238281 531.539062 203.792969 532.378906 204.40625 533.183594 C 205.015625 533.988281 205.679688 534.746094 206.394531 535.460938 C 207.109375 536.175781 207.871094 536.839844 208.675781 537.453125 C 209.480469 538.066406 210.320312 538.621094 211.199219 539.117188 C 212.082031 539.617188 212.988281 540.054688 213.929688 540.429688 C 214.867188 540.804688 215.824219 541.113281 216.808594 541.359375 C 215.824219 541.605469 214.867188 541.917969 213.929688 542.292969 C 212.988281 542.667969 212.082031 543.105469 211.199219 543.601562 C 210.320312 544.101562 209.480469 544.65625 208.675781 545.269531 C 207.871094 545.878906 207.109375 546.542969 206.394531 547.257812 C 205.679688 547.972656 205.015625 548.734375 204.40625 549.535156 C 203.792969 550.339844 203.238281 551.183594 202.738281 552.0625 C 202.242188 552.941406 201.804688 553.851562 201.429688 554.789062 C 201.054688 555.730469 200.742188 556.6875 200.496094 557.667969 C 200.253906 556.6875 199.941406 555.730469 199.566406 554.789062 C 199.191406 553.851562 198.753906 552.941406 198.257812 552.0625 C 197.757812 551.183594 197.203125 550.339844 196.589844 549.535156 C 195.976562 548.734375 195.316406 547.972656 194.601562 547.257812 C 193.886719 546.542969 193.125 545.878906 192.320312 545.269531 C 191.515625 544.65625 190.675781 544.101562 189.796875 543.601562 C 188.914062 543.105469 188.007812 542.667969 187.066406 542.292969 C 186.128906 541.917969 185.167969 541.605469 184.1875 541.359375 C 185.167969 541.113281 186.128906 540.804688 187.066406 540.429688 C 188.007812 540.054688 188.914062 539.617188 189.796875 539.117188 C 190.675781 538.621094 191.515625 538.066406 192.320312 537.453125 C 193.125 536.839844 193.886719 536.175781 194.601562 535.460938 C 195.316406 534.746094 195.976562 533.988281 196.589844 533.183594 C 197.203125 532.378906 197.757812 531.535156 198.257812 530.65625 C 198.753906 529.777344 199.191406 528.867188 199.566406 527.929688 C 199.941406 526.992188 200.253906 526.03125 200.496094 525.050781 M 200.496094 499.40625 C 200.496094 508.859375 200.097656 516.183594 199.472656 521.855469 C 199.347656 523.027344 199.121094 524.183594 198.796875 525.316406 C 198.472656 526.453125 198.054688 527.550781 197.546875 528.613281 C 197.035156 529.679688 196.441406 530.691406 195.757812 531.652344 C 195.078125 532.617188 194.320312 533.515625 193.484375 534.347656 C 192.652344 535.183594 191.753906 535.941406 190.789062 536.625 C 189.828125 537.304688 188.8125 537.902344 187.75 538.410156 C 186.6875 538.921875 185.585938 539.335938 184.453125 539.660156 C 183.316406 539.984375 182.164062 540.210938 180.992188 540.339844 C 175.320312 540.960938 167.996094 541.363281 158.539062 541.363281 C 167.996094 541.363281 175.320312 541.765625 180.992188 542.386719 C 182.164062 542.515625 183.316406 542.738281 184.453125 543.0625 C 185.585938 543.386719 186.6875 543.804688 187.75 544.3125 C 188.8125 544.824219 189.828125 545.417969 190.789062 546.101562 C 191.753906 546.785156 192.652344 547.542969 193.484375 548.375 C 194.320312 549.210938 195.078125 550.109375 195.757812 551.070312 C 196.441406 552.035156 197.035156 553.046875 197.546875 554.109375 C 198.054688 555.175781 198.472656 556.273438 198.796875 557.40625 C 199.121094 558.542969 199.347656 559.695312 199.472656 560.867188 C 200.097656 566.542969 200.496094 573.863281 200.496094 583.320312 C 200.496094 573.863281 200.898438 566.542969 201.519531 560.867188 C 201.648438 559.695312 201.875 558.542969 202.199219 557.40625 C 202.523438 556.273438 202.9375 555.175781 203.449219 554.109375 C 203.960938 553.046875 204.554688 552.035156 205.238281 551.070312 C 205.917969 550.109375 206.675781 549.210938 207.511719 548.375 C 208.34375 547.542969 209.242188 546.785156 210.207031 546.101562 C 211.167969 545.417969 212.183594 544.824219 213.246094 544.3125 C 214.308594 543.804688 215.410156 543.386719 216.542969 543.0625 C 217.675781 542.738281 218.832031 542.515625 220.003906 542.386719 C 225.675781 541.765625 233 541.363281 242.453125 541.363281 C 233 541.363281 225.675781 540.960938 220.003906 540.339844 C 218.832031 540.210938 217.675781 539.984375 216.542969 539.660156 C 215.410156 539.335938 214.308594 538.921875 213.246094 538.410156 C 212.183594 537.902344 211.167969 537.304688 210.207031 536.625 C 209.242188 535.941406 208.34375 535.183594 207.511719 534.347656 C 206.675781 533.515625 205.917969 532.617188 205.238281 531.652344 C 204.554688 530.691406 203.960938 529.679688 203.449219 528.613281 C 202.9375 527.550781 202.523438 526.453125 202.199219 525.316406 C 201.875 524.183594 201.648438 523.027344 201.519531 521.855469 C 200.898438 516.183594 200.496094 508.859375 200.496094 499.40625 Z M 200.496094 499.40625 " fill-opacity="1" fill-rule="nonzero"/></g></g></g></g></svg>