<?xml version="1.0" encoding="UTF-8" standalone="no"?><!DOCTYPE svg PUBLIC "-//W3C//DTD SVG 1.1//EN" "http://www.w3.org/Graphics/SVG/1.1/DTD/svg11.dtd"><svg width="100%" height="100%" viewBox="0 0 4167 630" version="1.1" xmlns="http://www.w3.org/2000/svg" xmlns:xlink="http://www.w3.org/1999/xlink" xml:space="preserve" xmlns:serif="http://www.serif.com/" style="fill-rule:evenodd;clip-rule:evenodd;stroke-linejoin:round;stroke-miterlimit:2;"><g><g><g><g><g><path d="M140.328,330.845l97.656,-262.5c-7.53,-16.884 -14.497,-28.234 -20.92,-34.028c-6.38,-5.773 -10.46,-8.984 -12.24,-9.635l53.212,0l190.972,514.583c9.896,26.736 18.75,43.902 26.562,51.476c7.856,7.53 12.674,11.589 14.41,12.153l-66.233,0c4.036,-1.15 5.773,-6.25 5.208,-15.278c-0.586,-9.028 -4.34,-23.394 -11.285,-43.142l-12.24,-30.556c-12.804,27.322 -31.988,49.284 -57.552,65.885c-25.586,16.558 -52.908,24.826 -81.944,24.826c-27.387,0 -52.691,-6.966 -75.955,-20.92c-23.22,-13.932 -41.645,-32.552 -55.295,-55.816c-13.672,-23.264 -20.486,-48.546 -20.486,-75.868c0,-34.896 8.702,-75.282 26.128,-121.181Zm125.608,271.181c31.359,0 59.397,-8.55 84.115,-25.694c24.696,-17.188 42.882,-38.845 54.514,-65.017l-109.896,-294.705l-108.16,0l-42.708,116.84c-17.426,45.898 -26.128,85.417 -26.128,118.576c0,27.322 6.684,52.322 20.052,75c13.368,22.7 31.38,40.864 54.08,54.514c22.678,13.672 47.396,20.486 74.132,20.486Zm-20.052,-515.365c-0.586,-2.886 -1.476,-5.339 -2.691,-7.378c-1.172,-2.083 -2.322,-4.275 -3.472,-6.597l-51.389,140.365l104.601,0l-47.049,-126.389Zm-183.16,452.604l2.604,4.34c-7.595,19.748 -11.523,34.266 -11.806,43.576c-0.304,9.332 1.042,14.562 3.993,15.712l-36.632,0c2.3,-0.564 7.509,-4.905 15.625,-13.021c8.16,-8.16 16.884,-25.022 26.215,-50.608Z" style="fill:#3f2417;fill-rule:nonzero;"/></g></g></g><g><g><g><path d="M625.163,318.605l-59.288,0l0,204.948c0,21.528 1.302,38.108 3.906,49.74c2.648,11.589 5.295,19.423 7.899,23.524c2.604,4.058 3.906,6.076 3.906,6.076l-65.365,0c0,0 1.432,-2.018 4.34,-6.076c2.886,-4.102 5.642,-11.936 8.247,-23.524c2.648,-11.632 3.993,-28.212 3.993,-49.74l0,-419.444c0,-31.424 -2.496,-52.344 -7.465,-62.76c-4.926,-10.46 -7.964,-16.016 -9.115,-16.667l176.128,0c30.208,0 57.812,6.576 82.812,19.705c25,13.086 44.9,30.816 59.722,53.212c14.865,22.352 22.309,47.461 22.309,75.347c0,26.736 -7.444,51.172 -22.309,73.264c-14.822,22.114 -34.722,39.714 -59.722,52.778c-25,13.086 -52.604,19.618 -82.812,19.618l-29.688,0c25,4.644 45.182,13.802 60.59,27.517c15.451,13.672 28.234,29.774 38.368,48.351c10.178,18.576 19.64,37.76 28.385,57.552c8.16,18.012 16.71,35.894 25.694,53.646c9.028,17.708 19.922,33.55 32.726,47.483c12.782,13.954 28.602,25.152 47.483,33.594c18.924,8.464 42.622,12.674 71.094,12.674l0,3.472c-42.426,0 -76.714,-6.25 -102.865,-18.75c-26.172,-12.5 -46.788,-28.602 -61.892,-48.351c-15.104,-19.792 -27.908,-41.016 -38.368,-63.715c-8.16,-18.576 -16.037,-36.849 -23.611,-54.861c-7.53,-18.056 -15.951,-34.484 -25.26,-49.306c-9.332,-14.865 -21.094,-26.78 -35.33,-35.764c-14.236,-9.028 -32.422,-13.542 -54.514,-13.542Zm53.212,-290.365l-112.5,0l0,286.892l112.5,0c29.688,0 55.556,-6.814 77.604,-20.486c22.092,-13.65 39.106,-31.38 51.042,-53.212c11.914,-21.81 17.882,-44.64 17.882,-68.49c0,-25.564 -5.968,-49.24 -17.882,-71.007c-11.936,-21.81 -28.95,-39.54 -51.042,-53.212c-22.049,-13.65 -47.917,-20.486 -77.604,-20.486Z" style="fill:#3f2417;fill-rule:nonzero;"/></g></g></g><g><g><g><path d="M1440.544,24.682l28.819,45.399l-1.736,1.736c-13.954,-13.368 -29.818,-23.958 -47.569,-31.771c-17.708,-7.856 -37.044,-11.806 -57.986,-11.806l-112.5,0l0,495.312c0,21.528 1.302,38.108 3.906,49.74c2.648,11.589 5.143,19.423 7.465,23.524c2.3,4.058 3.472,6.076 3.472,6.076l-64.497,0c0,0 1.432,-2.018 4.34,-6.076c2.886,-4.102 5.773,-11.936 8.681,-23.524c2.951,-11.632 4.427,-28.212 4.427,-49.74l0,-495.312l-116.927,0c-21.484,0 -41.233,3.95 -59.288,11.806c-18.012,7.812 -33.984,18.403 -47.917,31.771l-1.736,-1.736l28.733,-45.399l420.313,0Z" style="fill:#3f2417;fill-rule:nonzero;"/></g></g></g><g><g><g><path d="M2166.976,24.682l28.819,45.399l-1.736,1.736c-13.954,-13.368 -29.818,-23.958 -47.569,-31.771c-17.708,-7.856 -37.044,-11.806 -57.986,-11.806l-112.5,0l0,495.312c0,21.528 1.302,38.108 3.906,49.74c2.648,11.589 5.143,19.423 7.465,23.524c2.3,4.058 3.472,6.076 3.472,6.076l-64.497,0c0,0 1.432,-2.018 4.34,-6.076c2.886,-4.102 5.773,-11.936 8.681,-23.524c2.951,-11.632 4.427,-28.212 4.427,-49.74l0,-495.312l-116.927,0c-21.484,0 -41.233,3.95 -59.288,11.806c-18.012,7.812 -33.984,18.403 -47.917,31.771l-1.736,-1.736l28.733,-45.399l420.312,0Z" style="fill:#3f2417;fill-rule:nonzero;"/></g></g></g><g><g><g><path d="M2338.818,330.845l97.656,-262.5c-7.595,-16.254 -14.453,-27.279 -20.573,-33.073c-6.076,-5.838 -10.286,-9.375 -12.587,-10.59l53.212,0l190.972,514.583c9.31,26.172 17.882,43.186 25.694,51.042c7.856,7.812 12.674,12.023 14.41,12.587l-65.365,0c4.036,-1.15 5.773,-6.25 5.208,-15.278c-0.586,-9.028 -4.34,-23.394 -11.285,-43.142l-12.24,-30.556c-12.804,27.322 -31.988,49.284 -57.552,65.885c-25.586,16.558 -52.908,24.826 -81.944,24.826c-27.387,0 -52.691,-6.966 -75.955,-20.92c-23.22,-13.932 -41.645,-32.552 -55.295,-55.816c-13.672,-23.264 -20.486,-48.546 -20.486,-75.868c0,-34.896 8.702,-75.282 26.128,-121.181Zm125.608,271.181c31.359,0 59.397,-8.55 84.115,-25.694c24.696,-17.188 42.882,-38.845 54.514,-65.017l-109.896,-294.705l-108.16,0l-42.708,116.84c-17.426,45.898 -26.128,85.417 -26.128,118.576c0,27.322 6.684,52.322 20.052,75c13.368,22.7 31.359,40.864 53.993,54.514c22.678,13.672 47.418,20.486 74.219,20.486Zm-20.139,-515.365c-0.586,-2.886 -1.454,-5.339 -2.604,-7.378c-1.172,-2.083 -2.322,-4.275 -3.472,-6.597l-51.476,140.365l104.688,0l-47.135,-126.389Zm-183.073,452.604l2.604,4.34c-7.595,19.748 -11.523,34.266 -11.806,43.576c-0.304,9.332 1.042,14.562 3.993,15.712l-35.764,0c2.886,-1.15 8.095,-5.924 15.625,-14.323c7.574,-8.442 16.016,-24.87 25.347,-49.306Z" style="fill:#3f2417;fill-rule:nonzero;"/></g></g></g><g><g><g><path d="M2830.664,330.845l97.656,-262.5c-7.595,-16.254 -14.453,-27.279 -20.573,-33.073c-6.076,-5.838 -10.286,-9.375 -12.587,-10.59l53.212,0l190.972,514.583c9.31,26.172 17.882,43.186 25.694,51.042c7.856,7.812 12.674,12.023 14.41,12.587l-65.365,0c4.036,-1.15 5.773,-6.25 5.208,-15.278c-0.586,-9.028 -4.34,-23.394 -11.285,-43.142l-12.24,-30.556c-12.804,27.322 -31.988,49.284 -57.552,65.885c-25.586,16.558 -52.908,24.826 -81.944,24.826c-27.387,0 -52.691,-6.966 -75.955,-20.92c-23.22,-13.932 -41.645,-32.552 -55.295,-55.816c-13.672,-23.264 -20.486,-48.546 -20.486,-75.868c0,-34.896 8.702,-75.282 26.128,-121.181Zm125.608,271.181c31.359,0 59.397,-8.55 84.115,-25.694c24.696,-17.188 42.882,-38.845 54.514,-65.017l-109.896,-294.705l-108.16,0l-42.708,116.84c-17.426,45.898 -26.128,85.417 -26.128,118.576c0,27.322 6.684,52.322 20.052,75c13.368,22.7 31.359,40.864 53.993,54.514c22.678,13.672 47.418,20.486 74.219,20.486Zm-20.139,-515.365c-0.586,-2.886 -1.454,-5.339 -2.604,-7.378c-1.172,-2.083 -2.322,-4.275 -3.472,-6.597l-51.476,140.365l104.688,0l-47.135,-126.389Zm-183.073,452.604l2.604,4.34c-7.595,19.748 -11.523,34.266 -11.806,43.576c-0.304,9.332 1.042,14.562 3.993,15.712l-35.764,0c2.886,-1.15 8.095,-5.924 15.625,-14.323c7.574,-8.442 16.016,-24.87 25.347,-49.306Z" style="fill:#3f2417;fill-rule:nonzero;"/></g></g></g><g><g><g><path d="M3312.875,318.605l-59.288,0l0,204.948c0,21.528 1.302,38.108 3.906,49.74c2.648,11.589 5.295,19.423 7.899,23.524c2.604,4.058 3.906,6.076 3.906,6.076l-65.365,0c0,0 1.432,-2.018 4.34,-6.076c2.886,-4.102 5.642,-11.936 8.247,-23.524c2.648,-11.632 3.993,-28.212 3.993,-49.74l0,-419.444c0,-31.424 -2.496,-52.344 -7.465,-62.76c-4.926,-10.46 -7.964,-16.016 -9.115,-16.667l176.128,0c30.208,0 57.812,6.576 82.812,19.705c25,13.086 44.9,30.816 59.722,53.212c14.865,22.352 22.309,47.461 22.309,75.347c0,26.736 -7.444,51.172 -22.309,73.264c-14.822,22.114 -34.722,39.714 -59.722,52.778c-25,13.086 -52.604,19.618 -82.812,19.618l-29.688,0c25,4.644 45.182,13.802 60.59,27.517c15.451,13.672 28.234,29.774 38.368,48.351c10.178,18.576 19.64,37.76 28.385,57.552c8.16,18.012 16.71,35.894 25.694,53.646c9.028,17.708 19.922,33.55 32.726,47.483c12.782,13.954 28.602,25.152 47.483,33.594c18.924,8.464 42.622,12.674 71.094,12.674l0,3.472c-42.426,0 -76.714,-6.25 -102.865,-18.75c-26.172,-12.5 -46.788,-28.602 -61.892,-48.351c-15.104,-19.792 -27.908,-41.016 -38.368,-63.715c-8.16,-18.576 -16.037,-36.849 -23.611,-54.861c-7.53,-18.056 -15.951,-34.484 -25.26,-49.306c-9.332,-14.865 -21.094,-26.78 -35.33,-35.764c-14.236,-9.028 -32.422,-13.542 -54.514,-13.542Zm53.212,-290.365l-112.5,0l0,286.892l112.5,0c29.688,0 55.556,-6.814 77.604,-20.486c22.092,-13.65 39.106,-31.38 51.042,-53.212c11.914,-21.81 17.882,-44.64 17.882,-68.49c0,-25.564 -5.968,-49.24 -17.882,-71.007c-11.936,-21.81 -28.95,-39.54 -51.042,-53.212c-22.049,-13.65 -47.917,-20.486 -77.604,-20.486Z" style="fill:#3f2417;fill-rule:nonzero;"/></g></g></g><g><g><g><path d="M3797.787,330.845l97.656,-262.5c-7.595,-16.254 -14.453,-27.279 -20.573,-33.073c-6.076,-5.838 -10.286,-9.375 -12.587,-10.59l53.212,0l190.972,514.583c9.31,26.172 17.882,43.186 25.694,51.042c7.856,7.812 12.674,12.023 14.41,12.587l-65.365,0c4.036,-1.15 5.773,-6.25 5.208,-15.278c-0.586,-9.028 -4.34,-23.394 -11.285,-43.142l-12.24,-30.556c-12.804,27.322 -31.988,49.284 -57.552,65.885c-25.586,16.558 -52.908,24.826 -81.944,24.826c-27.387,0 -52.691,-6.966 -75.955,-20.92c-23.22,-13.932 -41.645,-32.552 -55.295,-55.816c-13.672,-23.264 -20.486,-48.546 -20.486,-75.868c0,-34.896 8.702,-75.282 26.128,-121.181Zm125.608,271.181c31.359,0 59.397,-8.55 84.115,-25.694c24.696,-17.188 42.882,-38.845 54.514,-65.017l-109.896,-294.705l-108.16,0l-42.708,116.84c-17.426,45.898 -26.128,85.417 -26.128,118.576c0,27.322 6.684,52.322 20.052,75c13.368,22.7 31.359,40.864 53.993,54.514c22.678,13.672 47.418,20.486 74.219,20.486Zm-20.139,-515.365c-0.586,-2.886 -1.454,-5.339 -2.604,-7.378c-1.172,-2.083 -2.322,-4.275 -3.472,-6.597l-51.476,140.365l104.688,0l-47.135,-126.389Zm-183.073,452.604l2.604,4.34c-7.595,19.748 -11.523,34.266 -11.806,43.576c-0.304,9.332 1.042,14.562 3.993,15.712l-35.764,0c2.886,-1.15 8.095,-5.924 15.625,-14.323c7.574,-8.442 16.016,-24.87 25.347,-49.306Z" style="fill:#3f2417;fill-rule:nonzero;"/></g></g></g></g></g></svg>