<?xml version="1.0" encoding="UTF-8" standalone="no"?><!DOCTYPE svg PUBLIC "-//W3C//DTD SVG 1.1//EN" "http://www.w3.org/Graphics/SVG/1.1/DTD/svg11.dtd"><svg width="100%" height="100%" viewBox="0 0 3121 1688" version="1.1" xmlns="http://www.w3.org/2000/svg" xmlns:xlink="http://www.w3.org/1999/xlink" xml:space="preserve" xmlns:serif="http://www.serif.com/" style="fill-rule:evenodd;clip-rule:evenodd;stroke-linejoin:round;stroke-miterlimit:2;"><g><g><g><g><g><path d="M868.178,482.671l124.306,-334.288c-9.614,-21.463 -18.49,-35.894 -26.649,-43.316c-8.116,-7.4 -13.281,-11.48 -15.538,-12.24l67.795,0l243.142,655.208c12.609,34.093 23.893,55.946 33.854,65.538c10.004,9.614 16.146,14.8 18.403,15.538l-84.462,0c5.208,-1.497 7.422,-7.986 6.684,-19.444c-0.76,-11.458 -5.556,-29.774 -14.41,-54.948l-15.538,-38.889c-16.319,34.787 -40.777,62.739 -73.351,83.854c-32.595,21.137 -67.361,31.684 -104.34,31.684c-34.852,0 -67.079,-8.876 -96.701,-26.649c-29.579,-17.752 -53.082,-41.45 -70.486,-71.094c-17.361,-29.622 -26.042,-61.827 -26.042,-96.615c0,-44.444 11.111,-95.877 33.333,-154.34Zm159.896,345.313c39.974,0 75.694,-10.894 107.118,-32.726c31.467,-21.875 54.622,-49.436 69.444,-82.726l-139.931,-375.347l-137.674,0l-54.427,148.785c-22.222,58.507 -33.333,108.854 -33.333,151.042c0,34.787 8.507,66.623 25.521,95.486c17.014,28.885 39.952,52.04 68.837,69.444c28.863,17.361 60.352,26.042 94.444,26.042Zm-25.608,-656.25c-0.694,-3.689 -1.801,-6.858 -3.299,-9.462c-1.454,-2.604 -2.93,-5.382 -4.427,-8.333l-65.538,178.819l133.247,0l-59.983,-161.024Zm-233.16,576.302l3.299,5.556c-9.614,25.174 -14.627,43.707 -15.017,55.556c-0.347,11.806 1.324,18.468 5.035,19.965l-46.615,0c2.951,-0.738 9.592,-6.293 19.965,-16.667c10.352,-10.352 21.463,-31.814 33.333,-64.41Z" style="fill:#fff;fill-rule:nonzero;"/></g></g></g><g><g><g><path d="M1485.562,467.046l-75.521,0l0,261.024c0,27.387 1.649,48.481 4.948,63.281c3.342,14.822 6.706,24.826 10.069,30.035c3.342,5.165 5.035,7.726 5.035,7.726l-83.333,0c0,0 1.845,-2.561 5.556,-7.726c3.689,-5.208 7.205,-15.213 10.503,-30.035c3.342,-14.8 5.035,-35.894 5.035,-63.281l0,-534.201c0,-39.931 -3.168,-66.536 -9.462,-79.861c-6.25,-13.368 -10.135,-20.421 -11.632,-21.181l224.306,0c38.542,0 73.72,8.333 105.556,25c31.814,16.667 57.161,39.28 76.042,67.795c18.859,28.472 28.299,60.482 28.299,96.007c0,34.093 -9.44,65.191 -28.299,93.316c-18.88,28.125 -44.227,50.521 -76.042,67.188c-31.836,16.623 -67.014,24.913 -105.556,24.913l-37.76,0c31.814,5.968 57.552,17.665 77.17,35.069c19.618,17.361 35.894,37.912 48.872,61.632c12.956,23.676 25,48.09 36.111,73.264c10.352,22.917 21.267,45.703 32.726,68.316c11.502,22.569 25.391,42.752 41.667,60.503c16.319,17.773 36.48,32.031 60.503,42.795c24.067,10.72 54.253,16.059 90.538,16.059l0,4.427c-54.058,0 -97.743,-7.943 -131.076,-23.872c-33.29,-15.907 -59.549,-36.458 -78.819,-61.632c-19.227,-25.174 -35.503,-52.192 -48.872,-81.076c-10.373,-23.655 -20.356,-46.962 -29.948,-69.878c-9.614,-22.96 -20.356,-43.88 -32.205,-62.76c-11.871,-18.924 -26.888,-34.115 -45.052,-45.573c-18.121,-11.502 -41.233,-17.274 -69.358,-17.274Zm67.795,-369.792l-143.316,0l0,365.365l143.316,0c37.717,0 70.66,-8.681 98.785,-26.042c28.125,-17.405 49.761,-39.974 64.931,-67.708c15.213,-27.778 22.83,-56.858 22.83,-87.24c0,-32.574 -7.617,-62.717 -22.83,-90.451c-15.169,-27.778 -36.806,-50.369 -64.931,-67.795c-28.125,-17.405 -61.068,-26.128 -98.785,-26.128Z" style="fill:#fff;fill-rule:nonzero;"/></g></g></g><g><g><g><path d="M2387.271,92.827l36.719,57.726l-2.257,2.257c-17.773,-17.014 -37.934,-30.512 -60.503,-40.538c-22.569,-10.004 -47.201,-15.017 -73.872,-15.017l-143.229,0l0,630.816c0,27.387 1.649,48.481 4.948,63.281c3.342,14.822 6.51,24.826 9.462,30.035c2.951,5.165 4.427,7.726 4.427,7.726l-82.118,0c0,0 1.845,-2.561 5.556,-7.726c3.689,-5.208 7.378,-15.213 11.024,-30.035c3.689,-14.8 5.556,-35.894 5.556,-63.281l0,-630.816l-148.785,0c-27.387,0 -52.561,5.013 -75.521,15.017c-22.917,10.026 -43.273,23.524 -61.024,40.538l-2.257,-2.257l36.632,-57.726l535.243,0Z" style="fill:#fff;fill-rule:nonzero;"/></g></g></g><g><g><g><path d="M654.852,867.429l36.719,57.726l-2.257,2.257c-17.773,-17.014 -37.934,-30.512 -60.503,-40.538c-22.569,-10.004 -47.201,-15.017 -73.872,-15.017l-143.229,0l0,630.816c0,27.387 1.649,48.481 4.948,63.281c3.342,14.822 6.51,24.826 9.462,30.035c2.951,5.165 4.427,7.726 4.427,7.726l-82.118,0c0,0 1.845,-2.561 5.556,-7.726c3.689,-5.208 7.378,-15.213 11.024,-30.035c3.689,-14.8 5.556,-35.894 5.556,-63.281l0,-630.816l-148.785,0c-27.387,0 -52.561,5.013 -75.521,15.017c-22.917,10.026 -43.273,23.524 -61.024,40.538l-2.257,-2.257l36.632,-57.726l535.243,0Z" style="fill:#fff;fill-rule:nonzero;"/></g></g></g><g><g><g><path d="M739.337,1257.273l124.306,-334.288c-9.614,-21.463 -18.49,-35.894 -26.649,-43.316c-8.116,-7.4 -13.281,-11.48 -15.538,-12.24l67.795,0l243.142,655.208c12.609,34.093 23.893,55.946 33.854,65.538c10.004,9.614 16.146,14.8 18.403,15.538l-84.462,0c5.208,-1.497 7.422,-7.986 6.684,-19.444c-0.76,-11.458 -5.556,-29.774 -14.41,-54.948l-15.538,-38.889c-16.319,34.787 -40.777,62.739 -73.351,83.854c-32.595,21.137 -67.361,31.684 -104.34,31.684c-34.852,0 -67.079,-8.876 -96.701,-26.649c-29.579,-17.752 -53.082,-41.45 -70.486,-71.094c-17.361,-29.622 -26.042,-61.827 -26.042,-96.615c0,-44.444 11.111,-95.877 33.333,-154.34Zm159.896,345.312c39.974,0 75.694,-10.894 107.118,-32.726c31.467,-21.875 54.622,-49.436 69.444,-82.726l-139.931,-375.347l-137.674,0l-54.427,148.785c-22.222,58.507 -33.333,108.854 -33.333,151.042c0,34.787 8.507,66.623 25.521,95.486c17.014,28.885 39.952,52.04 68.837,69.444c28.863,17.361 60.352,26.042 94.444,26.042Zm-25.608,-656.25c-0.694,-3.689 -1.801,-6.858 -3.299,-9.462c-1.454,-2.604 -2.93,-5.382 -4.427,-8.333l-65.538,178.819l133.247,0l-59.983,-161.024Zm-233.16,576.302l3.299,5.556c-9.614,25.174 -14.627,43.707 -15.017,55.556c-0.347,11.806 1.324,18.468 5.035,19.965l-46.615,0c2.951,-0.738 9.592,-6.293 19.965,-16.667c10.352,-10.352 21.463,-31.814 33.333,-64.41Z" style="fill:#fff;fill-rule:nonzero;"/></g></g></g><g><g><g><path d="M1371.218,1257.273l124.306,-334.288c-9.614,-21.463 -18.49,-35.894 -26.649,-43.316c-8.116,-7.4 -13.281,-11.48 -15.538,-12.24l67.795,0l243.142,655.208c12.609,34.093 23.893,55.946 33.854,65.538c10.004,9.614 16.146,14.8 18.403,15.538l-84.462,0c5.208,-1.497 7.422,-7.986 6.684,-19.444c-0.76,-11.458 -5.556,-29.774 -14.41,-54.948l-15.538,-38.889c-16.319,34.787 -40.777,62.739 -73.351,83.854c-32.595,21.137 -67.361,31.684 -104.34,31.684c-34.852,0 -67.079,-8.876 -96.701,-26.649c-29.579,-17.752 -53.082,-41.45 -70.486,-71.094c-17.361,-29.622 -26.042,-61.827 -26.042,-96.615c0,-44.444 11.111,-95.877 33.333,-154.34Zm159.896,345.312c39.974,0 75.694,-10.894 107.118,-32.726c31.467,-21.875 54.622,-49.436 69.444,-82.726l-139.931,-375.347l-137.674,0l-54.427,148.785c-22.222,58.507 -33.333,108.854 -33.333,151.042c0,34.787 8.507,66.623 25.521,95.486c17.014,28.885 39.952,52.04 68.837,69.444c28.863,17.361 60.352,26.042 94.444,26.042Zm-25.608,-656.25c-0.694,-3.689 -1.801,-6.858 -3.299,-9.462c-1.454,-2.604 -2.93,-5.382 -4.427,-8.333l-65.538,178.819l133.247,0l-59.983,-161.024Zm-233.16,576.302l3.299,5.556c-9.614,25.174 -14.627,43.707 -15.017,55.556c-0.347,11.806 1.324,18.468 5.035,19.965l-46.615,0c2.951,-0.738 9.592,-6.293 19.965,-16.667c10.352,-10.352 21.463,-31.814 33.333,-64.41Z" style="fill:#fff;fill-rule:nonzero;"/></g></g></g><g><g><g><path d="M1988.603,1241.648l-75.521,0l0,261.024c0,27.387 1.649,48.481 4.948,63.281c3.342,14.822 6.706,24.826 10.069,30.035c3.342,5.165 5.035,7.726 5.035,7.726l-83.333,0c0,0 1.845,-2.561 5.556,-7.726c3.689,-5.208 7.205,-15.213 10.503,-30.035c3.342,-14.8 5.035,-35.894 5.035,-63.281l0,-534.201c0,-39.931 -3.168,-66.536 -9.462,-79.861c-6.25,-13.368 -10.135,-20.421 -11.632,-21.181l224.306,0c38.542,0 73.72,8.333 105.556,25c31.814,16.667 57.161,39.28 76.042,67.795c18.859,28.472 28.299,60.482 28.299,96.007c0,34.093 -9.44,65.191 -28.299,93.316c-18.88,28.125 -44.227,50.521 -76.042,67.188c-31.836,16.623 -67.014,24.913 -105.556,24.913l-37.76,0c31.814,5.968 57.552,17.665 77.17,35.069c19.618,17.361 35.894,37.912 48.872,61.632c12.956,23.676 25,48.09 36.111,73.264c10.352,22.917 21.267,45.703 32.726,68.316c11.502,22.569 25.391,42.752 41.667,60.503c16.319,17.773 36.48,32.031 60.503,42.795c24.067,10.72 54.253,16.059 90.538,16.059l0,4.427c-54.058,0 -97.743,-7.943 -131.076,-23.872c-33.29,-15.907 -59.549,-36.458 -78.819,-61.632c-19.227,-25.174 -35.503,-52.192 -48.872,-81.076c-10.373,-23.655 -20.356,-46.962 -29.948,-69.878c-9.614,-22.96 -20.356,-43.88 -32.205,-62.76c-11.871,-18.924 -26.888,-34.115 -45.052,-45.573c-18.121,-11.502 -41.233,-17.274 -69.358,-17.274Zm67.795,-369.792l-143.316,0l0,365.365l143.316,0c37.717,0 70.66,-8.681 98.785,-26.042c28.125,-17.405 49.761,-39.974 64.931,-67.708c15.213,-27.778 22.83,-56.858 22.83,-87.24c0,-32.574 -7.617,-62.717 -22.83,-90.451c-15.169,-27.778 -36.806,-50.369 -64.931,-67.795c-28.125,-17.405 -61.068,-26.128 -98.785,-26.128Z" style="fill:#fff;fill-rule:nonzero;"/></g></g></g><g><g><g><path d="M2608.328,1257.273l124.306,-334.288c-9.614,-21.463 -18.49,-35.894 -26.649,-43.316c-8.116,-7.4 -13.281,-11.48 -15.538,-12.24l67.795,0l243.142,655.208c12.609,34.093 23.893,55.946 33.854,65.538c10.004,9.614 16.146,14.8 18.403,15.538l-84.462,0c5.208,-1.497 7.422,-7.986 6.684,-19.444c-0.76,-11.458 -5.556,-29.774 -14.41,-54.948l-15.538,-38.889c-16.319,34.787 -40.777,62.739 -73.351,83.854c-32.595,21.137 -67.361,31.684 -104.34,31.684c-34.852,0 -67.079,-8.876 -96.701,-26.649c-29.579,-17.752 -53.082,-41.45 -70.486,-71.094c-17.361,-29.622 -26.042,-61.827 -26.042,-96.615c0,-44.444 11.111,-95.877 33.333,-154.34Zm159.896,345.312c39.974,0 75.694,-10.894 107.118,-32.726c31.467,-21.875 54.622,-49.436 69.444,-82.726l-139.931,-375.347l-137.674,0l-54.427,148.785c-22.222,58.507 -33.333,108.854 -33.333,151.042c0,34.787 8.507,66.623 25.521,95.486c17.014,28.885 39.952,52.04 68.837,69.444c28.863,17.361 60.352,26.042 94.444,26.042Zm-25.608,-656.25c-0.694,-3.689 -1.801,-6.858 -3.299,-9.462c-1.454,-2.604 -2.93,-5.382 -4.427,-8.333l-65.538,178.819l133.247,0l-59.983,-161.024Zm-233.16,576.302l3.299,5.556c-9.614,25.174 -14.627,43.707 -15.017,55.556c-0.347,11.806 1.324,18.468 5.035,19.965l-46.615,0c2.951,-0.738 9.592,-6.293 19.965,-16.667c10.352,-10.352 21.463,-31.814 33.333,-64.41Z" style="fill:#fff;fill-rule:nonzero;"/></g></g></g></g></g></svg>